<svg width="14" height="14" viewBox="0 0 14 14" fill="none" xmlns="http://www.w3.org/2000/svg">
<g clip-path="url(#clip0_2_4)">
<path fill-rule="evenodd" clip-rule="evenodd" d="M13.4625 9.69167C13.4625 12.6644 10.7698 14 6.99998 14C3.23019 14 0.537476 12.6644 0.537476 9.71321C0.537476 6.48196 2.1531 4.84467 5.38436 3.2075L4.24008 1.07733C4.17183 0.970577 4.13383 0.8473 4.13014 0.720645C4.12644 0.593991 4.15719 0.468708 4.2191 0.358154C4.28101 0.2476 4.37176 0.15592 4.48168 0.0928894C4.5916 0.0298588 4.71657 -0.00215941 4.84325 0.000248535H9.41009C9.52886 0.00326782 9.6449 0.0364614 9.7473 0.0967045C9.8497 0.156948 9.93508 0.242258 9.99542 0.344606C10.0557 0.446953 10.089 0.56297 10.0922 0.681734C10.0953 0.800499 10.0681 0.918104 10.0133 1.02348L8.61561 3.2075C11.8469 4.82313 13.4625 6.46041 13.4625 9.69167ZM7.62497 4.88745C7.62497 4.54227 7.34515 4.26245 6.99997 4.26245C6.65479 4.26245 6.37497 4.54227 6.37497 4.88745V5.514C5.44796 5.55285 4.70834 6.31667 4.70834 7.25323C4.70834 8.0713 5.27796 8.77899 6.07713 8.95381L7.55022 9.27605C7.83693 9.33876 8.04166 9.59304 8.04166 9.88697C8.04166 10.2324 7.76154 10.5124 7.41666 10.5124H6.58334C6.31219 10.5124 6.07984 10.3394 5.99375 10.0958C5.87872 9.77036 5.52164 9.59979 5.19619 9.71482C4.87074 9.82985 4.70017 10.1869 4.8152 10.5124C5.05014 11.1771 5.64965 11.6708 6.37497 11.751V12.3874C6.37497 12.7326 6.65479 13.0124 6.99997 13.0124C7.34515 13.0124 7.62497 12.7326 7.62497 12.3874V11.751C8.5627 11.6473 9.29166 10.8518 9.29166 9.88697C9.29166 9.00606 8.67834 8.24326 7.81734 8.05492L6.34425 7.73268C6.11894 7.68339 5.95834 7.48387 5.95834 7.25323C5.95834 6.98218 6.17807 6.76245 6.44913 6.76245H7.41666C7.60171 6.76245 7.76733 6.84208 7.88266 6.97094C7.93685 7.03148 7.97905 7.10209 8.00625 7.17906C8.12128 7.50451 8.47836 7.67508 8.80381 7.56005C9.12926 7.44502 9.29983 7.08795 9.1848 6.7625C9.10226 6.52895 8.9751 6.31721 8.81408 6.13729C8.51506 5.8032 8.09617 5.57612 7.62497 5.52392V4.88745Z" fill="#AE35C7"/>
</g>
<defs>
<clipPath id="clip0_2_4">
<rect width="14" height="14" fill="white"/>
</clipPath>
</defs>
</svg>
